<svg width="370" height="370" viewBox="0 0 370 370" fill="none" xmlns="http://www.w3.org/2000/svg">
<path d="M182.247 51.4492H176.902V56.7945H182.247V51.4492Z" fill="#BD1822"/>
<path d="M192.945 51.4492H187.6V56.7945H192.945V51.4492Z" fill="#BD1822"/>
<path d="M203.636 83.2986H198.291V88.644H203.636V83.2986Z" fill="#BD1822"/>
<path d="M214.327 99.5723H208.982V104.918H214.327V99.5723Z" fill="#BD1822"/>
<path d="M214.327 110.263H208.982V115.608H214.327V110.263Z" fill="#BD1822"/>
<path d="M198.291 275.613H203.636V232.835H208.989V248.871H214.334V225.025H219.68V248.871H225.025V224.995H248.879V219.643H225.025V214.297H248.879V208.952H225.025V203.607H275.613V198.254H225.025V192.916H307.7V187.563H225.025V182.218H307.7V176.872H225.025V171.579H275.613V166.233H225.025V160.888H248.879V155.535H225.025V150.19H248.879V144.845H225.025V120.961H219.68V144.845V145.112H214.334V120.961H208.989V142.35H203.636V94.2269H198.291V137.005H192.945V62.1399H187.6V131.659H182.247V62.1399H176.902V137.005H171.609V94.2269H166.263V142.35H160.918V120.961H155.565V144.845H150.227V120.961H144.874V144.845H120.969V150.19H144.874V155.535H120.969V160.888H144.874V166.233H94.2344V171.579H144.874V176.872H62.1473V182.218H144.874V187.563H62.1473V192.916H144.874V198.254H94.2344V203.607H144.874V208.952H120.969V214.297H144.874V219.643H120.969V224.995H144.874V248.871H150.227V225.025H155.565V248.871H160.918V232.835H166.263V275.613H171.609V243.526H176.902V307.693H182.247V254.224H187.6V307.693H192.945V243.526H198.291V275.613Z" fill="#BD1822"/>
<path d="M171.609 83.2986H166.263V88.644H171.609V83.2986Z" fill="#BD1822"/>
<path d="M160.918 99.5723H155.572V104.918H160.918V99.5723Z" fill="#BD1822"/>
<path d="M160.918 110.263H155.572V115.608H160.918V110.263Z" fill="#BD1822"/>
<path d="M182.247 313.038H176.902V318.383H182.247V313.038Z" fill="#BD1822"/>
<path d="M192.945 313.038H187.6V318.383H192.945V313.038Z" fill="#BD1822"/>
<path d="M203.636 281.189H198.291V286.534H203.636V281.189Z" fill="#BD1822"/>
<path d="M214.327 264.915H208.982V270.26H214.327V264.915Z" fill="#BD1822"/>
<path d="M214.327 254.224H208.982V259.57H214.327V254.224Z" fill="#BD1822"/>
<path d="M171.609 281.189H166.263V286.534H171.609V281.189Z" fill="#BD1822"/>
<path d="M160.918 264.915H155.572V270.26H160.918V264.915Z" fill="#BD1822"/>
<path d="M160.918 254.224H155.572V259.57H160.918V254.224Z" fill="#BD1822"/>
<path d="M56.8019 176.872H51.4566V182.218H56.8019V176.872Z" fill="#BD1822"/>
<path d="M56.8019 187.563H51.4566V192.908H56.8019V187.563Z" fill="#BD1822"/>
<path d="M88.6514 198.261H83.3061V203.607H88.6514V198.261Z" fill="#BD1822"/>
<path d="M104.925 208.952H99.5797V214.297H104.925V208.952Z" fill="#BD1822"/>
<path d="M115.616 208.952H110.27V214.297H115.616V208.952Z" fill="#BD1822"/>
<path d="M88.6514 166.233H83.3061V171.579H88.6514V166.233Z" fill="#BD1822"/>
<path d="M104.925 155.535H99.5797V160.881H104.925V155.535Z" fill="#BD1822"/>
<path d="M115.616 155.535H110.27V160.881H115.616V155.535Z" fill="#BD1822"/>
<path d="M318.391 176.872H313.045V182.218H318.391V176.872Z" fill="#BD1822"/>
<path d="M318.391 187.563H313.045V192.908H318.391V187.563Z" fill="#BD1822"/>
<path d="M286.541 198.261H281.196V203.607H286.541V198.261Z" fill="#BD1822"/>
<path d="M270.268 208.952H264.922V214.297H270.268V208.952Z" fill="#BD1822"/>
<path d="M259.577 208.952H254.232V214.297H259.577V208.952Z" fill="#BD1822"/>
<path d="M286.541 166.233H281.196V171.579H286.541V166.233Z" fill="#BD1822"/>
<path d="M270.268 155.535H264.922V160.881H270.268V155.535Z" fill="#BD1822"/>
<path d="M259.577 155.535H254.232V160.881H259.577V155.535Z" fill="#BD1822"/>
<path d="M171.609 57.7448V51.8575C108.496 58.1309 58.1457 108.459 51.8649 171.571H57.7596C63.9959 111.696 111.726 63.9662 171.609 57.7448Z" fill="#BD1822"/>
<path d="M57.7522 198.261H51.8649C58.1457 261.374 108.489 311.709 171.601 317.975V312.088C111.718 305.859 63.9885 258.144 57.7522 198.261Z" fill="#BD1822"/>
<path d="M312.088 171.571H317.982C311.702 108.474 261.388 58.1531 198.298 51.8575V57.7522C258.152 64.0033 305.859 111.711 312.095 171.571" fill="#BD1822"/>
<path d="M198.291 312.08V317.975C261.388 311.687 311.694 261.359 317.975 198.261H312.08C305.844 258.122 258.144 305.837 198.283 312.08" fill="#BD1822"/>
<path d="M178.394 202.396C184.616 202.396 190.072 199.145 193.168 194.26C190.607 197.11 186.895 198.907 182.76 198.907C175.038 198.907 168.773 192.641 168.773 184.92C168.773 177.199 175.038 170.933 182.76 170.933C186.895 170.933 190.607 172.73 193.168 175.58C190.072 170.688 184.608 167.444 178.394 167.444C168.743 167.444 160.918 175.269 160.918 184.92C160.918 194.571 168.743 202.396 178.394 202.396Z" fill="white"/>
<path d="M199.211 186.88V193.228L202.946 188.09L208.982 190.057L205.247 184.92L208.982 179.783L202.946 181.742L199.211 176.605V182.953L193.176 184.92L199.211 186.88Z" fill="white"/>
<path d="M74.1076 51.4492L65.4585 60.076L54.6044 54.5747L60.0389 65.5624L51.5085 74.3154L63.5208 72.4817L69.1111 83.3951L71.086 71.2641L83.0685 69.2596L72.2887 63.6024L74.1076 51.4492Z" fill="#BD1822"/>
<path d="M31.263 103.507L26.5412 114.829L14.4251 113.953L23.6013 122.001L19.0354 133.389L29.4292 127.042L38.7242 134.956L35.9699 122.988L46.2745 116.492L34.1806 115.445L31.263 103.507Z" fill="#BD1822"/>
<path d="M358.325 181.037L358.236 168.75L351.035 178.639L339.461 174.927L346.528 184.92L339.461 194.913L351.035 191.201L358.236 201.09L358.325 188.795L369.84 184.92L358.325 181.037Z" fill="#BD1822"/>
<path d="M331.123 134.956L340.411 127.042L350.812 133.389L346.246 122.001L355.415 113.953L343.306 114.829L338.584 103.507L335.667 115.445L323.573 116.492L333.878 122.988L331.123 134.956Z" fill="#BD1822"/>
<path d="M315.243 54.5747L304.389 60.076L295.74 51.4492L297.559 63.6024L286.779 69.2596L298.754 71.2716L300.736 83.3951L306.327 72.4817L318.331 74.3154L309.809 65.5624L315.243 54.5747Z" fill="#BD1822"/>
<path d="M255.895 14.4028L247.943 23.6978L236.696 19.0726L242.962 29.5925L235.144 38.9915L246.971 36.2149L253.385 46.6457L254.425 34.4034L266.214 31.4486L255.033 26.66L255.895 14.4028Z" fill="#BD1822"/>
<path d="M184.92 0L181.089 11.6633L168.951 11.7524L178.721 19.0429L175.053 30.7581L184.92 23.6087L194.794 30.7581L191.127 19.0429L200.897 11.7524L188.758 11.6633L184.92 0Z" fill="#BD1822"/>
<path d="M194.794 339.082L184.92 346.231L175.053 339.082L178.721 350.797L168.951 358.088L181.089 358.177L184.92 369.833L188.758 358.177L200.897 358.088L191.127 350.797L194.794 339.082Z" fill="#BD1822"/>
<path d="M133.152 19.0726L121.904 23.6978L113.953 14.4028L114.814 26.66L103.633 31.4486L115.423 34.4034L116.455 46.6457L122.877 36.2149L134.696 38.9989L126.886 29.5925L133.152 19.0726Z" fill="#BD1822"/>
<path d="M254.425 335.437L253.393 323.187L246.971 333.625L235.144 330.841L242.962 340.24L236.696 350.767L247.943 346.142L255.895 355.43L255.026 343.173L266.214 338.384L254.425 335.437Z" fill="#BD1822"/>
<path d="M306.327 297.351L300.744 286.445L298.754 298.568L286.779 300.573L297.551 306.23L295.74 318.391L304.389 309.757L315.243 315.258L309.809 304.27L318.331 295.517L306.327 297.351Z" fill="#BD1822"/>
<path d="M350.805 236.443L340.411 242.791L331.123 234.877L333.878 246.845L323.565 253.341L335.667 254.395L338.584 266.325L343.306 255.004L355.422 255.88L346.246 247.832L350.805 236.443Z" fill="#BD1822"/>
<path d="M30.3869 194.913L23.3192 184.92L30.3869 174.92L18.8127 178.632L11.6113 168.743L11.5222 181.037L0 184.92L11.5222 188.795L11.6113 201.09L18.8127 191.201L30.3869 194.913Z" fill="#BD1822"/>
<path d="M38.7168 234.877L29.4366 242.791L19.0354 236.443L23.6013 247.832L14.4251 255.88L26.5338 255.004L31.263 266.325L34.1806 254.395L46.2745 253.341L35.9699 246.845L38.7168 234.877Z" fill="#BD1822"/>
<path d="M71.0934 298.568L69.1037 286.445L63.5208 297.351L51.516 295.517L60.0389 304.27L54.6044 315.258L65.4585 309.757L74.1076 318.383L72.2887 306.23L83.0685 300.573L71.0934 298.568Z" fill="#BD1822"/>
<path d="M122.877 333.625L116.455 323.187L115.415 335.437L103.633 338.384L114.814 343.173L113.953 355.43L121.904 346.142L133.144 350.767L126.878 340.24L134.696 330.841L122.877 333.625Z" fill="#BD1822"/>
</svg>
